<?xml version="1.0" encoding="utf-8"?>
<!DOCTYPE svg PUBLIC "-//W3C//DTD SVG 1.0//EN" "http://www.w3.org/TR/2001/REC-SVG-20010904/DTD/svg10.dtd">
<svg version="1.0" xmlns="http://www.w3.org/2000/svg" width="18" height="18" viewBox="0 0 720 720" preserveAspectRatio="xMidYMid meet">
 <g fill="#000000">
  <path d="M86 619.20 c-15.80 -2.30 -27.70 -9.10 -36.50 -20.80 -4.55 -6.05 -7.70 -13 -9.75 -21.40 -1.10 -4.65 -1.55 -14.55 -0.80 -18.80 0.35 -1.90 0.85 -4.90 1.10 -6.70 0.30 -1.80 0.70 -4.35 0.95 -5.75 0.25 -1.35 0.90 -5.65 1.50 -9.50 1 -6.70 1.60 -10.70 3.25 -20.85 0.40 -2.55 1.20 -7.70 1.75 -11.40 0.55 -3.70 1.25 -8.10 1.50 -9.75 0.25 -1.65 0.70 -4.70 1 -6.75 0.30 -2.05 0.75 -4.85 1 -6.25 0.50 -2.75 0.90 -5.15 1.55 -9.25 0.20 -1.50 0.55 -3.55 0.70 -4.50 0.65 -3.65 3.25 -20.10 4.50 -28.25 0.70 -4.65 2.15 -14.10 3.20 -21 1.10 -6.85 2.35 -14.85 2.80 -17.75 0.40 -2.90 1.10 -7.40 1.50 -10 0.40 -2.60 1.40 -8.90 2.20 -14 4.85 -29.90 5.15 -31.85 7.55 -47.50 0.55 -3.70 1.35 -8.75 1.75 -11.25 0.40 -2.45 1.40 -9.10 2.25 -14.75 3.15 -21.95 9.45 -60.60 10.75 -66.60 1.65 -7.40 5.65 -16.30 10.30 -22.90 4.50 -6.40 9.55 -10.85 21.15 -18.60 18.55 -12.40 83.40 -55.95 88.20 -59.25 5.45 -3.75 14.20 -8 19.85 -9.80 9.90 -3.10 2 -2.90 130.75 -2.70 87.05 0.10 118.45 0.30 122 0.75 27 3.40 49.95 16.40 65.25 36.85 1.40 1.95 4.95 7.20 7.75 11.75 3.90 6.20 6.20 9.25 9.20 12.30 4.95 4.95 6.80 6.05 16.45 9.70 39.05 14.75 66.45 32.70 84.80 55.50 12.25 15.20 19.60 30.65 23.05 48.25 1.65 8.50 2.30 23.35 1.35 30 -1.75 11.85 -2.55 14.75 -6.20 22.15 -3.05 6.25 -6.50 10.45 -11.40 13.90 -2.80 1.95 -2.80 1.95 -5.80 9.45 -4.20 10.45 -6.25 14.80 -21.70 46 -14.55 29.25 -16.60 34.25 -17.05 41.25 -0.30 4.05 -0.05 5.60 6.50 39 1.75 9.20 3.70 19.35 4.30 22.50 1.25 6.90 4.30 22.65 6.60 34 3.90 19.45 1.25 32.70 -9.10 45.75 -7.30 9.15 -17.35 14.80 -29.85 16.70 -2.55 0.40 -76.45 0.55 -261.25 0.50 -141.70 -0.05 -258.20 -0.15 -258.90 -0.25z m520 -23.90 c4.85 -1.15 10.65 -5.35 13.45 -9.70 3.65 -5.75 5.20 -13.90 3.70 -19.60 -0.30 -1.25 -0.85 -3.70 -1.15 -5.50 -0.30 -1.80 -0.90 -4.80 -1.35 -6.75 -0.40 -1.90 -1.15 -5.85 -1.65 -8.75 -0.50 -2.90 -1.35 -7.50 -1.90 -10.25 -1 -4.75 -2.45 -12.50 -4.35 -23.50 -0.50 -2.75 -1.15 -5.15 -1.45 -5.35 -0.30 -0.20 -1.35 0.40 -2.30 1.30 -6.25 6 -14.05 9.70 -22.50 10.80 -6.20 0.80 -402.95 0.45 -405.75 -0.35 -1.10 -0.35 -2.80 -0.80 -3.75 -1.05 -3.20 -0.85 -9.20 -4 -12.85 -6.85 -2 -1.50 -3.75 -2.75 -3.85 -2.75 -0.40 0 -15.85 19.20 -59.10 73.20 l-12.05 15.05 4.80 0.25 c8.35 0.45 510.20 0.25 512.05 -0.20z m-20.55 -97.55 c8.25 -2.15 14 -7.70 16.80 -16 1.10 -3.25 1.35 -5.25 1.75 -12.90 0.40 -8.50 0.70 -10.80 2.05 -17.10 0.80 -3.75 3.35 -10.50 5.50 -14.75 2 -3.90 2.50 -4.85 6.75 -12.25 7.10 -12.55 17.05 -31.85 22.75 -44.15 l4.90 -10.70 -3.60 0.35 c-2 0.20 -4.40 0.50 -5.35 0.75 -0.95 0.25 -3.20 0.65 -5 0.95 -1.80 0.25 -4.70 0.75 -6.50 1 -1.80 0.30 -5.60 0.90 -8.50 1.30 -2.90 0.45 -6.35 1.05 -7.75 1.30 -1.35 0.30 -3.95 0.70 -5.75 1 -1.80 0.25 -4.35 0.65 -5.75 0.90 -19.15 3.20 -51.65 8.55 -56 9.20 -0.80 0.10 -6.35 1 -12.25 2 -9.85 1.65 -21.65 3.50 -26 4.05 -0.95 0.10 -4 0.55 -6.75 0.95 -20.65 3.15 -47.10 3.50 -69.25 0.85 -23.95 -2.80 -25.85 -3.15 -28.55 -5.10 -5.40 -3.90 -5.25 -12.90 0.25 -16.15 3.30 -1.90 5.05 -2 14.30 -0.55 7.50 1.15 13.55 1.80 30.55 3.30 14.60 1.30 34.95 0.15 57.45 -3.25 7.30 -1.10 32.20 -5.15 35.25 -5.75 1.40 -0.25 5.30 -0.95 8.75 -1.50 3.45 -0.55 14.60 -2.35 24.75 -4 10.20 -1.70 26.70 -4.40 36.75 -6 10.05 -1.65 19.40 -3.20 20.75 -3.45 1.40 -0.30 4.10 -0.75 6 -1.05 1.95 -0.30 6.15 -0.95 9.35 -1.50 3.20 -0.55 6.30 -1 6.90 -1 0.60 0 2.35 -0.35 3.90 -0.80 3.85 -1.10 8.45 -5.65 10.05 -9.95 3.50 -9.35 4.35 -23.30 2.05 -33.60 -1.25 -5.50 -1.70 -7.15 -2.75 -10.15 -4.90 -14.20 -12.15 -25.40 -24.25 -37.55 -15.65 -15.70 -36.45 -28.20 -66.25 -39.75 -19.10 -7.40 -24.25 -11.70 -37.05 -31.05 -6.80 -10.25 -8.65 -12.65 -13.40 -17.45 -9.55 -9.60 -20 -15.50 -33.65 -18.95 -8.75 -2.20 -7.30 -2.15 -129.65 -2.30 l-116.25 -0.15 -2.95 1.10 c-4.15 1.55 -6.90 3.25 -9.65 6.05 -3.90 3.90 -5 6.75 -6.90 17.70 -0.95 5.25 -2.05 11.40 -2.50 13.60 -1.65 7.90 -2.75 13.55 -3.30 16.50 -0.25 1.65 -0.85 4.60 -1.25 6.50 -0.75 3.60 -1.20 5.95 -2.15 10.75 -0.65 3.35 -2.85 15.15 -3.60 19.25 -0.30 1.65 -0.75 4 -1 5.25 -0.25 1.25 -1 5.30 -1.70 9 -0.65 3.70 -1.65 9.10 -2.20 12 -0.55 2.90 -1.90 10.10 -3 16 -1.15 5.90 -2.35 12.20 -2.80 14 -0.80 3.60 -4.20 21.35 -4.80 25.25 -0.20 1.40 -1.10 6.10 -1.95 10.50 -1.60 8.30 -1.80 9.25 -3.50 18.75 -0.60 3.15 -1.25 6.75 -1.45 8 -0.25 1.25 -0.80 4.05 -1.25 6.25 -1.45 7.15 -3.35 16.95 -3.80 19.50 -0.25 1.40 -1.10 6.10 -1.95 10.50 -0.80 4.40 -1.85 10.05 -2.30 12.50 -1.65 9.40 -3.25 18.30 -4.70 26.75 -0.85 4.80 -2.70 15.30 -4.10 23.25 -2.90 16.70 -3.35 21.25 -2.45 24.65 2.40 8.70 7.50 14.10 16 16.95 l3.25 1.10 198 0 c170.10 0.05 198.40 -0.05 200.70 -0.70z"/>
  <path d="M459.60 309 c-5.45 -0.45 -6.30 -0.65 -10.60 -2.35 -10.10 -4.05 -19.25 -13.90 -22.50 -24.20 -4.05 -12.95 -1.35 -27.15 7 -37.20 4.90 -5.85 10.50 -9.60 18.30 -12.20 5.65 -1.90 9.85 -2.30 15.50 -1.60 7.60 1 13.20 3.20 18.55 7.25 10.40 7.85 15.65 18.45 15.65 31.50 0 6.80 -1.10 11.75 -3.95 17.55 -4.60 9.30 -14.05 17.25 -24.05 20.20 -1.55 0.45 -2.80 0.65 -8 1.25 -0.70 0.10 -3.35 0 -5.90 -0.20z"/>
  <path d="M623.75 308.20 c-1.60 -0.90 -4.25 -3.65 -4.25 -4.40 0 -0.25 -1.65 -2.10 -3.70 -4.10 -3.30 -3.20 -3.80 -3.95 -4.35 -6.40 -0.50 -2.40 -0.50 -3.05 0.25 -5 2.70 -7.05 12.55 -8.45 17.20 -2.45 0.75 0.95 2.65 3.35 4.25 5.35 1.55 1.95 3.20 4.50 3.65 5.65 1.45 3.75 0 8.30 -3.45 10.85 -1.90 1.40 -7.45 1.70 -9.60 0.50z"/>
  <path d="M383.55 296.90 c-5.40 -1.20 -8.10 -6.75 -10.85 -22.40 -1.05 -5.75 -1.15 -18.80 -0.25 -25 2.80 -19.25 13.30 -38.60 27.50 -50.70 11.45 -9.80 23.25 -15.50 38.50 -18.60 5.35 -1.10 7.60 -1.30 15.05 -1.30 7.45 0 9.65 0.20 15 1.30 11.15 2.30 19.35 5.60 28 11.30 6.90 4.50 11.05 8.10 16.10 13.70 5.45 6.05 8.60 10.75 12.40 18.55 6.75 13.75 7.15 19.40 1.65 23.40 -3.60 2.60 -8.65 2.35 -12.25 -0.65 -1.40 -1.15 -2.10 -2.35 -2.90 -4.90 -1.90 -5.85 -3.55 -9.20 -7.40 -14.95 -6.15 -9.25 -15.15 -17.40 -24.45 -22.10 -12.70 -6.35 -29.75 -7.65 -43.35 -3.30 -11.70 3.75 -19.45 8.40 -26.80 16.10 -9.35 9.75 -14.55 20.10 -17.25 34.40 -1.40 7.10 -0.80 18.55 1.30 26.50 1.90 7.10 2.25 10.10 1.50 12.40 -0.75 2.15 -4 5.35 -6.40 6.20 -2.15 0.70 -2.10 0.70 -5.10 0.05z"/>
 </g>
</svg>