<?xml version="1.0" encoding="utf-8"?>
<!DOCTYPE svg PUBLIC "-//W3C//DTD SVG 1.0//EN" "http://www.w3.org/TR/2001/REC-SVG-20010904/DTD/svg10.dtd">
<svg version="1.0" xmlns="http://www.w3.org/2000/svg"
 width="20" height="20" viewBox="-1.22 -1.76 336.1 259.8"
 preserveAspectRatio="xMidYMid meet">
<metadata>
Created by potrace 1.12, written by Peter Selinger 2001-2015
</metadata>
<g transform="translate(-28.117426,318.040662) scale(0.100000,-0.100000)"
fill="#000000" stroke="none">
<path d="M2287 3169 c-151 -35 -287 -167 -326 -316 -13 -46 -16 -48 -106 -58
-84 -9 -305 -67 -398 -104 -232 -92 -429 -219 -609 -390 -360 -342 -579 -850
-566 -1314 3 -111 6 -127 32 -181 35 -72 101 -137 176 -174 l55 -27 948 -3
948 -2 24 24 c54 54 19 177 -62 223 -37 21 -52 22 -291 24 -139 0 -252 5 -252
9 0 4 45 68 100 141 55 74 111 157 124 185 77 158 46 336 -82 463 -125 125
-284 161 -443 101 -32 -12 -114 -65 -190 -121 -111 -82 -139 -99 -169 -99 -39
1 -61 14 -78 47 -16 30 -15 64 3 90 27 38 257 204 330 238 189 89 422 69 598
-51 154 -106 233 -255 252 -478 l7 -80 297 -315 c163 -174 314 -335 335 -358
l39 -43 284 0 284 0 24 25 c55 54 19 177 -65 224 -34 19 -54 21 -217 21 l-180
0 -63 68 c-67 71 -115 121 -353 373 -81 86 -147 160 -147 165 0 5 67 46 148
92 81 45 285 160 454 255 175 98 325 189 348 211 63 60 93 126 98 221 3 65 0
91 -18 138 -51 136 -177 214 -594 367 l-129 48 -17 53 c-33 105 -88 181 -177
241 -100 69 -254 96 -376 67z m182 -327 c89 -48 93 -181 7 -237 -67 -44 -172
-8 -201 69 -46 121 80 229 194 168z"/>
</g>
</svg>
